<mxfile host="app.diagrams.net" agent="Mozilla/5.0 (Windows NT 10.0; Win64; x64) AppleWebKit/537.36 (KHTML, like Gecko) Chrome/130.0.0.0 Safari/537.36" version="24.8.0">
  <diagram name="Página-1" id="fUzpE0hrrHrd85nJWF5O">
    <mxGraphModel dx="1235" dy="1870" grid="1" gridSize="10" guides="1" tooltips="1" connect="1" arrows="1" fold="1" page="1" pageScale="1" pageWidth="827" pageHeight="1169" math="0" shadow="0">
      <root>
        <mxCell id="0" />
        <mxCell id="1" parent="0" />
        <mxCell id="07Gl5JpxkPCNa4u4OJyS-2" value="" style="rounded=0;whiteSpace=wrap;html=1;dashed=1;dashPattern=12 12;" parent="1" vertex="1">
          <mxGeometry x="190" y="-40" width="610" height="580" as="geometry" />
        </mxCell>
        <mxCell id="07Gl5JpxkPCNa4u4OJyS-45" style="edgeStyle=orthogonalEdgeStyle;rounded=0;orthogonalLoop=1;jettySize=auto;html=1;" parent="1" source="07Gl5JpxkPCNa4u4OJyS-1" target="07Gl5JpxkPCNa4u4OJyS-6" edge="1">
          <mxGeometry relative="1" as="geometry" />
        </mxCell>
        <mxCell id="07Gl5JpxkPCNa4u4OJyS-1" value="" style="shape=actor;whiteSpace=wrap;html=1;" parent="1" vertex="1">
          <mxGeometry x="100" y="190" width="60" height="80" as="geometry" />
        </mxCell>
        <mxCell id="07Gl5JpxkPCNa4u4OJyS-6" value="Flutter&lt;div&gt;&lt;br&gt;&lt;/div&gt;" style="sketch=0;outlineConnect=0;fontColor=#232F3E;gradientColor=none;strokeColor=#232F3E;fillColor=#ffffff;dashed=0;verticalLabelPosition=bottom;verticalAlign=top;align=center;html=1;fontSize=12;fontStyle=0;aspect=fixed;shape=mxgraph.aws4.resourceIcon;resIcon=mxgraph.aws4.mobile_client;" parent="1" vertex="1">
          <mxGeometry x="240" y="170" width="120" height="120" as="geometry" />
        </mxCell>
        <mxCell id="07Gl5JpxkPCNa4u4OJyS-16" value="" style="rounded=0;whiteSpace=wrap;html=1;dashed=1;dashPattern=12 12;" parent="1" vertex="1">
          <mxGeometry x="370" y="140" width="390" height="240" as="geometry" />
        </mxCell>
        <mxCell id="07Gl5JpxkPCNa4u4OJyS-32" value="" style="image;aspect=fixed;html=1;points=[];align=center;fontSize=12;image=https://www.teammeter.com/wp-content/uploads/2023/10/Scrum_and_Scrum_Master.png;" parent="1" vertex="1">
          <mxGeometry x="578.13" y="-20" width="210" height="140" as="geometry" />
        </mxCell>
        <UserObject label="" id="07Gl5JpxkPCNa4u4OJyS-33">
          <mxCell style="image;aspect=fixed;html=1;points=[];align=center;fontSize=12;image=https://d3i71xaburhd42.cloudfront.net/a44fb324586a919b5ed30bbc270b14a4e7b0b10a/2-Figure1-1.png;" parent="1" vertex="1">
            <mxGeometry x="310" width="260" height="120" as="geometry" />
          </mxCell>
        </UserObject>
        <mxCell id="07Gl5JpxkPCNa4u4OJyS-38" style="edgeStyle=orthogonalEdgeStyle;rounded=0;orthogonalLoop=1;jettySize=auto;html=1;exitX=1;exitY=0.5;exitDx=0;exitDy=0;" parent="1" source="07Gl5JpxkPCNa4u4OJyS-48" target="07Gl5JpxkPCNa4u4OJyS-34" edge="1">
          <mxGeometry relative="1" as="geometry">
            <mxPoint x="730" y="238" as="sourcePoint" />
            <Array as="points">
              <mxPoint x="850" y="286" />
              <mxPoint x="850" y="286" />
            </Array>
          </mxGeometry>
        </mxCell>
        <mxCell id="07Gl5JpxkPCNa4u4OJyS-49" style="edgeStyle=orthogonalEdgeStyle;rounded=0;orthogonalLoop=1;jettySize=auto;html=1;entryX=0;entryY=0.25;entryDx=0;entryDy=0;" parent="1" source="07Gl5JpxkPCNa4u4OJyS-6" target="07Gl5JpxkPCNa4u4OJyS-47" edge="1">
          <mxGeometry relative="1" as="geometry" />
        </mxCell>
        <mxCell id="07Gl5JpxkPCNa4u4OJyS-51" value="&lt;font style=&quot;font-size: 19px;&quot;&gt;Desarrollo&lt;/font&gt;" style="text;html=1;align=center;verticalAlign=middle;whiteSpace=wrap;rounded=0;" parent="1" vertex="1">
          <mxGeometry x="200" y="-30" width="110" height="50" as="geometry" />
        </mxCell>
        <mxCell id="07Gl5JpxkPCNa4u4OJyS-52" value="&lt;font style=&quot;font-size: 17px;&quot;&gt;Plataforma Microservicios&lt;/font&gt;" style="text;html=1;align=center;verticalAlign=middle;whiteSpace=wrap;rounded=0;" parent="1" vertex="1">
          <mxGeometry x="517" y="150" width="96" height="50" as="geometry" />
        </mxCell>
        <mxCell id="07Gl5JpxkPCNa4u4OJyS-53" value="" style="group" parent="1" vertex="1" connectable="0">
          <mxGeometry x="420.94" y="214" width="120.00000000000006" height="140" as="geometry" />
        </mxCell>
        <mxCell id="07Gl5JpxkPCNa4u4OJyS-47" value="" style="rounded=0;whiteSpace=wrap;html=1;" parent="07Gl5JpxkPCNa4u4OJyS-53" vertex="1">
          <mxGeometry width="120" height="140" as="geometry" />
        </mxCell>
        <mxCell id="07Gl5JpxkPCNa4u4OJyS-25" value="" style="outlineConnect=0;dashed=0;verticalLabelPosition=bottom;verticalAlign=top;align=center;html=1;shape=mxgraph.aws3.api_gateway;fillColor=#D9A741;gradientColor=none;" parent="07Gl5JpxkPCNa4u4OJyS-53" vertex="1">
          <mxGeometry x="30.939999999999998" y="18" width="58.12" height="72" as="geometry" />
        </mxCell>
        <mxCell id="07Gl5JpxkPCNa4u4OJyS-26" value="API GATEWAY" style="text;html=1;align=center;verticalAlign=middle;whiteSpace=wrap;rounded=0;" parent="07Gl5JpxkPCNa4u4OJyS-53" vertex="1">
          <mxGeometry x="29.060000000000002" y="104.5" width="60" height="30" as="geometry" />
        </mxCell>
        <mxCell id="07Gl5JpxkPCNa4u4OJyS-54" value="" style="group" parent="1" vertex="1" connectable="0">
          <mxGeometry x="578.13" y="216" width="150" height="140" as="geometry" />
        </mxCell>
        <mxCell id="07Gl5JpxkPCNa4u4OJyS-48" value="" style="rounded=0;whiteSpace=wrap;html=1;" parent="07Gl5JpxkPCNa4u4OJyS-54" vertex="1">
          <mxGeometry x="2.5" width="145" height="140" as="geometry" />
        </mxCell>
        <mxCell id="07Gl5JpxkPCNa4u4OJyS-24" value="" style="aspect=fixed;sketch=0;html=1;dashed=0;whitespace=wrap;verticalLabelPosition=bottom;verticalAlign=top;fillColor=#2875E2;strokeColor=#ffffff;points=[[0.005,0.63,0],[0.1,0.2,0],[0.9,0.2,0],[0.5,0,0],[0.995,0.63,0],[0.72,0.99,0],[0.5,1,0],[0.28,0.99,0]];shape=mxgraph.kubernetes.icon2;prIcon=api" parent="07Gl5JpxkPCNa4u4OJyS-54" vertex="1">
          <mxGeometry x="43.75" y="17.5" width="62.5" height="60" as="geometry" />
        </mxCell>
        <mxCell id="07Gl5JpxkPCNa4u4OJyS-27" value="API &quot;M-COMMERCE&quot;" style="text;html=1;align=center;verticalAlign=middle;whiteSpace=wrap;rounded=0;" parent="07Gl5JpxkPCNa4u4OJyS-54" vertex="1">
          <mxGeometry y="104.5" width="150" height="30" as="geometry" />
        </mxCell>
        <mxCell id="07Gl5JpxkPCNa4u4OJyS-55" value="" style="group" parent="1" vertex="1" connectable="0">
          <mxGeometry x="860" y="250" width="170" height="210" as="geometry" />
        </mxCell>
        <mxCell id="07Gl5JpxkPCNa4u4OJyS-34" value="" style="rounded=0;whiteSpace=wrap;html=1;dashed=1;dashPattern=12 12;" parent="07Gl5JpxkPCNa4u4OJyS-55" vertex="1">
          <mxGeometry width="170" height="210" as="geometry" />
        </mxCell>
        <mxCell id="07Gl5JpxkPCNa4u4OJyS-36" value="" style="html=1;verticalLabelPosition=bottom;align=center;labelBackgroundColor=#ffffff;verticalAlign=top;strokeWidth=2;strokeColor=#b85450;shadow=0;dashed=0;shape=mxgraph.ios7.icons.data;fillColor=#f8cecc;" parent="07Gl5JpxkPCNa4u4OJyS-55" vertex="1">
          <mxGeometry x="55" y="72" width="60" height="61.1" as="geometry" />
        </mxCell>
        <mxCell id="07Gl5JpxkPCNa4u4OJyS-37" value="Base de datos UTN" style="text;html=1;align=center;verticalAlign=middle;whiteSpace=wrap;rounded=0;" parent="07Gl5JpxkPCNa4u4OJyS-55" vertex="1">
          <mxGeometry x="55" y="22" width="60" height="30" as="geometry" />
        </mxCell>
        <mxCell id="07Gl5JpxkPCNa4u4OJyS-44" value="" style="image;aspect=fixed;html=1;points=[];align=center;fontSize=12;image=https://edicom.co/dam/jcr:cc9caad1-577a-4c26-ab32-d0307096c18a/oracle_integration.png;" parent="07Gl5JpxkPCNa4u4OJyS-55" vertex="1">
          <mxGeometry x="40" y="145" width="85" height="44" as="geometry" />
        </mxCell>
        <mxCell id="07Gl5JpxkPCNa4u4OJyS-56" value="" style="group" parent="1" vertex="1" connectable="0">
          <mxGeometry x="860" y="530" width="170" height="175.5" as="geometry" />
        </mxCell>
        <mxCell id="07Gl5JpxkPCNa4u4OJyS-39" value="" style="rounded=0;whiteSpace=wrap;html=1;dashed=1;dashPattern=12 12;" parent="07Gl5JpxkPCNa4u4OJyS-56" vertex="1">
          <mxGeometry width="170" height="175.5" as="geometry" />
        </mxCell>
        <mxCell id="07Gl5JpxkPCNa4u4OJyS-40" value="Fuente de datos&amp;nbsp; Externas" style="text;html=1;align=center;verticalAlign=middle;whiteSpace=wrap;rounded=0;" parent="07Gl5JpxkPCNa4u4OJyS-56" vertex="1">
          <mxGeometry x="55" y="35.5" width="60" height="30" as="geometry" />
        </mxCell>
        <mxCell id="07Gl5JpxkPCNa4u4OJyS-42" value="" style="image;aspect=fixed;html=1;points=[];align=center;fontSize=12;image=img/lib/azure2/app_services/API_Management_Services.svg;" parent="07Gl5JpxkPCNa4u4OJyS-56" vertex="1">
          <mxGeometry x="50" y="95.5" width="65" height="60" as="geometry" />
        </mxCell>
        <mxCell id="UuTUbmNtMvaGjxHEqeC4-1" value="Comunidad&amp;nbsp; Univeritaria" style="text;html=1;align=center;verticalAlign=middle;whiteSpace=wrap;rounded=0;" parent="1" vertex="1">
          <mxGeometry x="100" y="280" width="60" height="30" as="geometry" />
        </mxCell>
        <mxCell id="UuTUbmNtMvaGjxHEqeC4-2" value="" style="shape=actor;whiteSpace=wrap;html=1;" parent="1" vertex="1">
          <mxGeometry x="100" y="415" width="60" height="80" as="geometry" />
        </mxCell>
        <mxCell id="UuTUbmNtMvaGjxHEqeC4-3" value="Unidades/&lt;div&gt;Administración&lt;/div&gt;" style="text;html=1;align=center;verticalAlign=middle;whiteSpace=wrap;rounded=0;" parent="1" vertex="1">
          <mxGeometry x="100" y="516.05" width="60" height="30" as="geometry" />
        </mxCell>
        <mxCell id="UuTUbmNtMvaGjxHEqeC4-4" value="" style="fontColor=#0066CC;verticalAlign=top;verticalLabelPosition=bottom;labelPosition=center;align=center;html=1;outlineConnect=0;fillColor=#CCCCCC;strokeColor=#6881B3;gradientColor=none;gradientDirection=north;strokeWidth=2;shape=mxgraph.networks.pc;" parent="1" vertex="1">
          <mxGeometry x="300" y="420" width="100" height="70" as="geometry" />
        </mxCell>
        <mxCell id="UuTUbmNtMvaGjxHEqeC4-5" style="edgeStyle=orthogonalEdgeStyle;rounded=0;orthogonalLoop=1;jettySize=auto;html=1;entryX=0;entryY=0.5;entryDx=0;entryDy=0;entryPerimeter=0;" parent="1" source="UuTUbmNtMvaGjxHEqeC4-2" target="UuTUbmNtMvaGjxHEqeC4-4" edge="1">
          <mxGeometry relative="1" as="geometry" />
        </mxCell>
        <mxCell id="UuTUbmNtMvaGjxHEqeC4-9" value="" style="image;aspect=fixed;html=1;points=[];align=center;fontSize=12;image=https://academy.badertech.com.sa/web/image/slide.channel/14/image_1920/Oracle%20APEX%20Course?unique=19df0ad;" parent="1" vertex="1">
          <mxGeometry x="517" y="399.99999999999994" width="149.5" height="116.05" as="geometry" />
        </mxCell>
        <mxCell id="UuTUbmNtMvaGjxHEqeC4-11" value="Web" style="text;html=1;align=center;verticalAlign=middle;whiteSpace=wrap;rounded=0;" parent="1" vertex="1">
          <mxGeometry x="320" y="500" width="60" height="30" as="geometry" />
        </mxCell>
        <mxCell id="UuTUbmNtMvaGjxHEqeC4-13" style="edgeStyle=orthogonalEdgeStyle;rounded=0;orthogonalLoop=1;jettySize=auto;html=1;" parent="1" edge="1">
          <mxGeometry relative="1" as="geometry">
            <mxPoint x="407" y="455.2500000000002" as="sourcePoint" />
            <mxPoint x="517" y="454.25" as="targetPoint" />
            <Array as="points">
              <mxPoint x="407" y="454" />
              <mxPoint x="463" y="454" />
            </Array>
          </mxGeometry>
        </mxCell>
        <mxCell id="UuTUbmNtMvaGjxHEqeC4-14" style="edgeStyle=orthogonalEdgeStyle;rounded=0;orthogonalLoop=1;jettySize=auto;html=1;entryX=0.003;entryY=0.481;entryDx=0;entryDy=0;entryPerimeter=0;" parent="1" source="07Gl5JpxkPCNa4u4OJyS-47" target="07Gl5JpxkPCNa4u4OJyS-48" edge="1">
          <mxGeometry relative="1" as="geometry" />
        </mxCell>
        <mxCell id="_s-sxZfHnqzDZCNONtBP-2" style="edgeStyle=orthogonalEdgeStyle;rounded=0;orthogonalLoop=1;jettySize=auto;html=1;entryX=-0.021;entryY=0.677;entryDx=0;entryDy=0;entryPerimeter=0;" parent="1" source="UuTUbmNtMvaGjxHEqeC4-9" target="07Gl5JpxkPCNa4u4OJyS-34" edge="1">
          <mxGeometry relative="1" as="geometry" />
        </mxCell>
        <mxCell id="_s-sxZfHnqzDZCNONtBP-7" style="edgeStyle=orthogonalEdgeStyle;rounded=0;orthogonalLoop=1;jettySize=auto;html=1;" parent="1" source="07Gl5JpxkPCNa4u4OJyS-39" target="UuTUbmNtMvaGjxHEqeC4-9" edge="1">
          <mxGeometry relative="1" as="geometry" />
        </mxCell>
        <mxCell id="YeRmlsOSI_vTZ-SJYBxy-1" value="DeLone y McLean" style="text;html=1;align=center;verticalAlign=middle;whiteSpace=wrap;rounded=0;" vertex="1" parent="1">
          <mxGeometry x="385" y="-30" width="110" height="30" as="geometry" />
        </mxCell>
      </root>
    </mxGraphModel>
  </diagram>
</mxfile>
